<svg width="40" height="40" viewBox="0 0 40 40" fill="none" xmlns="http://www.w3.org/2000/svg">
<path d="M30 6.66683H28.3333V5.00016C28.3333 4.55814 28.1577 4.13421 27.8452 3.82165C27.5326 3.50909 27.1087 3.3335 26.6667 3.3335C26.2246 3.3335 25.8007 3.50909 25.4882 3.82165C25.1756 4.13421 25 4.55814 25 5.00016V6.66683H15V5.00016C15 4.55814 14.8244 4.13421 14.5118 3.82165C14.1993 3.50909 13.7754 3.3335 13.3333 3.3335C12.8913 3.3335 12.4674 3.50909 12.1548 3.82165C11.8423 4.13421 11.6667 4.55814 11.6667 5.00016V6.66683H10C8.67392 6.66683 7.40215 7.19361 6.46447 8.1313C5.52678 9.06898 5 10.3407 5 11.6668V31.6668C5 32.9929 5.52678 34.2647 6.46447 35.2024C7.40215 36.14 8.67392 36.6668 10 36.6668H30C31.3261 36.6668 32.5979 36.14 33.5355 35.2024C34.4732 34.2647 35 32.9929 35 31.6668V11.6668C35 10.3407 34.4732 9.06898 33.5355 8.1313C32.5979 7.19361 31.3261 6.66683 30 6.66683ZM10 10.0002H11.6667V11.6668C11.6667 12.1089 11.8423 12.5328 12.1548 12.8453C12.4674 13.1579 12.8913 13.3335 13.3333 13.3335C13.7754 13.3335 14.1993 13.1579 14.5118 12.8453C14.8244 12.5328 15 12.1089 15 11.6668V10.0002H25V11.6668C25 12.1089 25.1756 12.5328 25.4882 12.8453C25.8007 13.1579 26.2246 13.3335 26.6667 13.3335C27.1087 13.3335 27.5326 13.1579 27.8452 12.8453C28.1577 12.5328 28.3333 12.1089 28.3333 11.6668V10.0002H30C30.442 10.0002 30.866 10.1758 31.1785 10.4883C31.4911 10.8009 31.6667 11.2248 31.6667 11.6668V18.3335H8.33333V11.6668C8.33333 11.2248 8.50893 10.8009 8.82149 10.4883C9.13405 10.1758 9.55797 10.0002 10 10.0002ZM30 33.3335H10C9.55797 33.3335 9.13405 33.1579 8.82149 32.8453C8.50893 32.5328 8.33333 32.1089 8.33333 31.6668V21.6668H31.6667V31.6668C31.6667 32.1089 31.4911 32.5328 31.1785 32.8453C30.866 33.1579 30.442 33.3335 30 33.3335Z" fill="#5C6085"/>
<path d="M13.3332 28.3333C14.2536 28.3333 14.9998 27.5871 14.9998 26.6667C14.9998 25.7462 14.2536 25 13.3332 25C12.4127 25 11.6665 25.7462 11.6665 26.6667C11.6665 27.5871 12.4127 28.3333 13.3332 28.3333Z" fill="#5C6085"/>
<path d="M26.6668 25H20.0002C19.5581 25 19.1342 25.1756 18.8217 25.4882C18.5091 25.8007 18.3335 26.2246 18.3335 26.6667C18.3335 27.1087 18.5091 27.5326 18.8217 27.8452C19.1342 28.1577 19.5581 28.3333 20.0002 28.3333H26.6668C27.1089 28.3333 27.5328 28.1577 27.8453 27.8452C28.1579 27.5326 28.3335 27.1087 28.3335 26.6667C28.3335 26.2246 28.1579 25.8007 27.8453 25.4882C27.5328 25.1756 27.1089 25 26.6668 25Z" fill="#5C6085"/>
</svg>
